PathFileType  4	(X/Y/Z) C:\Users\antoi\Documents\MyRepositories\mobilecap\ResultsAnalysis
DataRate	CameraRate	NumFrames	NumMarkers	Units	OrigDataRate	OrigDataStartFrame	OrigNumFrames
100.0	100.0	5	51	mm	100.0	110	291
Frame#	Time	r_knee			r_shank_antsup			r_ankle			r_calc			r_5meta			r_toe			L_knee			L_shank_antsup			L_ankle			L_calc			L_5meta			L_toe			r_sh2			r_sh3			r_sh4			L_sh2			L_sh3			r_thigh1			r_thigh2			r_thigh3			r_thigh4			r_thigh5			L_thigh1			L_thigh2			L_thigh3			L_thigh4			r.ASIS			r.PSIS			L.ASIS			L.PSIS			C7			R_Shoulder			L_Shoulder			R_Sternum			L_Sternum			R_humerus			R_elbow_med			R_elbow_lat			R_forearm			R_wrist_radius			R_wrist_ulna			L_humerus			L_elbow_med			L_elbow_lat			L_forearm			L_wrist_radius			L_wrist_ulna			R_HJC			L_HJC			R_HJC_reg			L_HJC_reg			
		X1	Y1	Z1	X2	Y2	Z2	X3	Y3	Z3	X4	Y4	Z4	X5	Y5	Z5	X6	Y6	Z6	X7	Y7	Z7	X8	Y8	Z8	X9	Y9	Z9	X10	Y10	Z10	X11	Y11	Z11	X12	Y12	Z12	X13	Y13	Z13	X14	Y14	Z14	X15	Y15	Z15	X16	Y16	Z16	X17	Y17	Z17	X18	Y18	Z18	X19	Y19	Z19	X20	Y20	Z20	X21	Y21	Z21	X22	Y22	Z22	X23	Y23	Z23	X24	Y24	Z24	X25	Y25	Z25	X26	Y26	Z26	X27	Y27	Z27	X28	Y28	Z28	X29	Y29	Z29	X30	Y30	Z30	X31	Y31	Z31	X32	Y32	Z32	X33	Y33	Z33	X34	Y34	Z34	X35	Y35	Z35	X36	Y36	Z36	X37	Y37	Z37	X38	Y38	Z38	X39	Y39	Z39	X40	Y40	Z40	X41	Y41	Z41	X42	Y42	Z42	X43	Y43	Z43	X44	Y44	Z44	X45	Y45	Z45	X46	Y46	Z46	X47	Y47	Z47	X48	Y48	Z48	X49	Y49	Z49	X50	Y50	Z50	X51	Y51	Z51	

110	1.09000000	-535.83770	845.51689	-425.79666	-498.67735	781.98033	-426.47873	-594.64262	458.09500	-442.80323	-652.59213	470.25091	-492.24960	-536.29382	352.11530	-429.19946	-485.48290	356.70711	-474.76337	-533.74472	867.47758	-772.13546	-518.44530	772.10883	-767.20805	-704.54536	518.24892	-759.82614	-765.15840	527.74510	-707.06528	-660.07706	404.46072	-770.75005	-597.86685	405.03806	-731.04559	-527.10936	672.91869	-417.30334	-568.29184	802.49393	-400.55038	-604.20762	691.22108	-398.87490	-585.23968	823.82892	-798.86438	-646.10600	716.07913	-802.64129	-583.94194	1093.21169	-386.52730	-540.01168	989.58400	-396.42880	-588.42789	944.59837	-400.92477	-685.57737	1050.28694	-410.38398	-636.69478	945.69090	-426.59955	-605.44109	1139.36624	-788.13504	-544.88098	1014.34828	-785.40114	-706.31115	1093.29961	-772.34213	-644.56404	968.45849	-751.00248	-568.48205	1272.23126	-471.38135	-766.42816	1342.23048	-531.80807	-584.86708	1287.07745	-685.50214	-771.56229	1346.92139	-611.38828	-535.25663	1740.30960	-562.74635	-493.53279	1701.54649	-438.06384	-498.16607	1708.06898	-687.57775	-431.62256	1654.93601	-539.44794	-435.93908	1649.44438	-571.94647	-458.32206	1643.74810	-346.05731	-494.72736	1460.43868	-221.68862	-460.17600	1512.48652	-184.76189	-365.96408	1512.12022	-203.46230	-235.00404	1470.09534	-237.46205	-235.34525	1454.71019	-202.12395	-467.99894	1666.46370	-785.09070	-430.02882	1473.81074	-901.94762	-411.02873	1536.53222	-930.47262	-302.92470	1532.60312	-916.15499	-183.86667	1505.01300	-883.97214	-183.62066	1485.93853	-919.56863	-664.72655	1201.71481	-475.58610	-674.53621	1216.29313	-682.34825	-651.42691	1222.46940	-498.35739	-660.56182	1230.81220	-639.88668	
111	1.10000000	-523.97181	840.53385	-425.98462	-485.38198	777.81967	-426.66799	-570.68222	450.72076	-441.56602	-628.91433	461.68107	-490.81173	-510.04506	345.89404	-428.07289	-459.47143	351.55054	-473.66461	-522.46585	863.61974	-773.00164	-501.78875	768.41565	-768.56865	-672.59584	504.85677	-766.76807	-733.43269	510.25879	-712.56546	-623.63346	393.26783	-780.79538	-561.33740	394.81742	-741.02065	-510.39006	668.01397	-416.70247	-555.48778	796.32395	-400.71368	-588.12785	683.75491	-398.63383	-570.97201	816.03483	-801.53900	-625.04795	704.84914	-806.60638	-572.18146	1088.44850	-385.41049	-528.21266	984.55811	-396.75671	-576.73791	939.50851	-401.06339	-673.87333	1045.32047	-410.24488	-625.04612	940.55657	-426.55696	-597.32154	1135.44335	-788.43199	-535.76920	1010.85814	-785.88318	-697.64305	1088.66166	-770.39904	-634.69104	964.21968	-750.31014	-557.68693	1267.85846	-471.39708	-756.32979	1335.82780	-530.55744	-575.59431	1283.13156	-686.65722	-762.27048	1340.57480	-609.87437	-523.80465	1734.72837	-561.90122	-481.92562	1695.30507	-437.41964	-486.73163	1702.50290	-686.97353	-420.51277	1648.74844	-538.73022	-427.99337	1640.36164	-566.35131	-447.39531	1637.40990	-345.47535	-486.63850	1454.26273	-221.46097	-451.17870	1505.58070	-184.32949	-357.37232	1503.37119	-203.25770	-226.48264	1459.81595	-236.90724	-227.10895	1444.41315	-201.67113	-456.54390	1660.31768	-784.15866	-421.57634	1466.87167	-900.51708	-401.33975	1529.46694	-929.14137	-293.39186	1523.47474	-915.15658	-174.69971	1493.59038	-883.41016	-174.81355	1474.88424	-919.33051	-652.86067	1196.25355	-475.58867	-664.50617	1211.32615	-682.21903	-640.06245	1217.04190	-497.90603	-650.72253	1225.55559	-640.17017	
112	1.11000000	-512.41170	834.59698	-425.55506	-472.24078	772.49312	-426.64391	-547.34695	442.85710	-440.21954	-605.76872	452.53878	-489.47452	-484.57858	339.35360	-426.40609	-434.15007	345.85252	-472.26650	-511.21432	858.59156	-774.01772	-485.72972	763.74770	-769.98154	-640.53280	491.69511	-773.85695	-701.44111	493.21354	-717.99399	-587.75969	381.96165	-790.31451	-525.42202	384.42699	-750.68802	-493.92357	662.02336	-416.20489	-542.99939	789.00214	-400.84308	-572.31921	675.30823	-398.39234	-557.03627	807.59554	-804.07719	-604.16889	693.34220	-810.55468	-560.12780	1082.41911	-384.62539	-516.19542	978.20956	-397.06536	-564.85739	933.24038	-401.01482	-661.90752	1039.20324	-409.60717	-613.15908	934.42427	-426.39154	-588.76594	1130.35734	-788.65289	-526.41412	1006.09346	-786.47104	-688.66961	1082.92909	-768.79367	-625.35904	958.76014	-749.85084	-546.55267	1262.29742	-472.14754	-745.85344	1328.82720	-529.18905	-566.13597	1278.12693	-687.52941	-752.44044	1333.50676	-608.39321	-512.33884	1728.09522	-561.02076	-470.57975	1688.06573	-436.69493	-475.39753	1696.00573	-686.44684	-409.06022	1641.41124	-538.36043	-415.84373	1633.25491	-568.97991	-436.68722	1629.85145	-344.86327	-478.40010	1446.94578	-221.28844	-442.30443	1497.61752	-183.77654	-349.02658	1493.94450	-202.95640	-218.23153	1449.05331	-236.61386	-218.99531	1433.67150	-201.46491	-445.26131	1653.48486	-783.29234	-413.01475	1459.24285	-899.21619	-391.80698	1521.71837	-928.11798	-283.99834	1514.03961	-914.48103	-165.61478	1482.19428	-883.05046	-166.03226	1463.85664	-919.34376	-640.80561	1189.84296	-475.76698	-654.47267	1205.52869	-682.22843	-628.70067	1211.18219	-498.03892	-640.53814	1219.59416	-640.42151	
113	1.12000000	-500.70152	827.36336	-425.21645	-459.27501	766.00264	-426.42661	-524.59599	434.42363	-438.76578	-583.08376	442.72778	-488.21340	-459.73925	332.11666	-424.69583	-409.44363	339.51772	-470.61937	-500.10746	852.41367	-775.11537	-470.19205	758.32950	-771.68024	-608.76798	478.27259	-780.58700	-669.34562	476.81356	-723.82612	-552.69200	370.12685	-798.75147	-490.30027	373.68996	-759.53628	-477.71742	655.09020	-415.67929	-530.76386	780.47575	-400.91073	-556.61365	666.08034	-398.12412	-543.64975	798.49549	-806.30544	-583.79633	681.56886	-814.41509	-547.72827	1074.97195	-384.74821	-504.00836	970.67707	-397.49872	-552.65233	925.91181	-400.81754	-649.71162	1031.90453	-408.84621	-601.16264	927.38888	-426.23038	-579.65204	1123.97683	-788.54838	-516.81498	999.90018	-786.86109	-679.24959	1076.19449	-767.95762	-615.80892	952.17959	-750.24736	-535.12218	1255.57060	-473.44429	-735.04150	1321.09428	-527.72949	-556.38016	1271.89154	-687.76843	-741.99191	1325.58074	-606.94528	-500.90206	1720.43299	-559.98885	-459.51888	1680.02190	-435.70311	-464.20309	1688.55586	-685.83452	-397.59950	1633.16518	-538.27591	-400.34873	1627.74992	-576.23039	-426.14488	1621.05362	-344.04815	-470.20980	1438.58095	-220.83524	-433.49187	1488.61052	-183.26266	-340.47048	1484.01940	-202.52502	-210.10810	1437.67219	-236.56059	-210.89781	1422.38600	-201.40262	-434.21159	1645.79294	-782.48255	-404.27462	1451.06622	-898.25116	-382.45629	1513.31396	-927.42612	-274.65779	1504.23182	-914.02488	-156.63870	1470.73773	-882.93682	-157.31152	1452.73868	-919.39869	-628.59234	1182.45476	-475.89362	-644.26691	1198.70474	-682.16986	-617.37661	1204.80006	-498.65454	-629.81374	1212.83127	-640.44053	
114	1.13000000	-488.44004	818.62416	-425.49430	-446.47982	758.42699	-426.00424	-502.36572	425.17372	-437.30285	-560.77840	432.25166	-486.91318	-435.46054	324.03287	-422.99369	-385.16217	332.20376	-468.44579	-489.36569	844.83180	-776.16690	-455.05296	752.43532	-774.17670	-577.45813	464.53556	-787.18632	-637.54163	461.07484	-730.29765	-518.39399	357.73014	-806.08290	-456.02206	362.63853	-767.14299	-461.87631	647.17016	-414.83270	-518.57312	770.99275	-400.91146	-541.29921	656.13969	-397.79248	-530.93843	788.50446	-808.15680	-564.17901	669.47121	-818.18420	-535.02703	1066.46002	-385.07853	-491.61396	962.16736	-398.09350	-539.99191	917.72569	-400.53054	-637.35059	1023.43675	-408.11264	-589.09986	919.10648	-425.97831	-569.82655	1116.35582	-788.15552	-506.91752	992.20564	-786.89242	-669.33323	1068.48772	-767.96289	-605.96168	944.29236	-751.37953	-523.49010	1247.86393	-474.76039	-723.82499	1312.51421	-526.29420	-546.37188	1264.42253	-687.97159	-731.09132	1316.73309	-605.40889	-489.61936	1711.81512	-558.97935	-448.69151	1671.12911	-434.40419	-453.14714	1680.13503	-685.03402	-386.41941	1623.97577	-537.75100	-386.09585	1621.36440	-576.72984	-415.77869	1611.14560	-343.00265	-462.06322	1429.21562	-219.98853	-424.66762	1478.59350	-182.84442	-331.83087	1473.30116	-202.21364	-202.01356	1425.53265	-236.71022	-202.81650	1410.40735	-201.45445	-423.47839	1636.85818	-781.54887	-395.45752	1442.26860	-897.64967	-373.20805	1504.30511	-926.88206	-265.41548	1494.07264	-913.75974	-147.83745	1459.16143	-882.88615	-148.67274	1441.46297	-919.40979	-616.16648	1174.17125	-475.89929	-633.88554	1190.76768	-681.98199	-605.89165	1197.47900	-499.26132	-618.85851	1205.00593	-640.41560	
